<svg enable-background="new 0 0 3163.4 1806.1" viewBox="0 0 3163.4 1806.1" xmlns="http://www.w3.org/2000/svg"><path d="m1174 293.7h549.5v125.9h-549.5z" fill="#ef9a6a" stroke="#000" stroke-miterlimit="10" stroke-width="8"/><path d="m1393.3 353.2c0 15.2-11.7 26.1-26.4 26.1s-26.4-10.9-26.4-26.1 11.7-26.1 26.4-26.1 26.4 10.9 26.4 26.1zm-10.4 0c0-9.6-6.4-16.8-15.9-16.8s-15.9 7.2-15.9 16.8 6.4 16.8 15.9 16.8 15.9-7.2 15.9-16.8z"/><path d="m1408.6 378.4h-9.4v-50.4h9.4v16.3c0 2.2-.1 4.5-.1 5.4 1.6-2.8 5.5-5.1 10.4-5.1 9.1 0 16 7.3 16 17.4s-7 17.4-16.1 17.4c-4.7 0-8.6-2.2-10.2-5zm-.3-16.5c0 5 3.5 9.1 8.4 9.1 5 0 8.4-4 8.4-9.1s-3.5-9-8.4-9-8.4 3.9-8.4 9z"/><path d="m1442.8 353.3h-4.6v-7.9h14v37.7c0 7.2-5.8 8-10.4 8h-5v-7.9h3.2c1.9 0 2.8-.4 2.8-2.1zm4.3-25.3c3.4 0 6 2.7 6 6 0 3.4-2.7 6-6 6s-6-2.6-6-6c0-3.3 2.7-6 6-6z"/><path d="m1492.6 364.6h-24.6c.5 3.7 3.4 6.6 7.6 6.6 2.7 0 5.3-1.2 6.6-3.4l9.7 1c-3 7.1-9.1 10.4-16.5 10.4-9.9 0-17.3-7.3-17.3-17.4s7.3-17.4 17.1-17.4c9.1 0 17.3 5.9 17.3 19.7v.5zm-24.8-6.2h14.8c-.5-3.3-3.3-6-7.3-6-4-.1-6.8 2.4-7.5 6z"/><path d="m1505.4 361.9c0 5.2 3.4 9 8.3 9 3.5 0 6-1.9 7.3-5l8.8 2.7c-2.2 6.6-8.6 10.7-16.1 10.7-9.8 0-17.6-7.3-17.6-17.4s7.8-17.4 17.6-17.4c7.5 0 14 4.2 16.1 10.7l-8.8 2.7c-1.2-3-3.8-5-7.3-5-4.9 0-8.3 3.8-8.3 9z"/><path d="m1547.1 332.9v12.5h7.1v7.9h-7.1v14.9c0 2.1 1.7 2.4 3.1 2.4 2.4 0 4.3-.2 4.3-.2v8s-4.5.4-7.3.4c-4.7 0-9.5-.8-9.5-7.4v-18.1h-5.2v-7.9h5.2v-12.5z"/><path d="m630.1 827.9h549.5v125.9h-549.5z" fill="#fec64e" stroke="#000" stroke-miterlimit="10" stroke-width="8"/><path d="m855.6 885.6v.1c5.8 2.4 9.4 6.6 9.4 12.5 0 8.1-6 14.5-16.6 14.5h-17.9v-50.4h16.3c10.4 0 15.6 6.4 15.6 12.9-.2 4.3-2.3 8.3-6.8 10.4zm-15.2-14.9v11.3h5.1c3.6 0 6.6-1.8 6.6-5.7s-3.1-5.5-6.6-5.5h-5.1zm0 33.5h5.2c6 0 8.9-2.8 8.9-6.9 0-4.2-3.5-6.4-8.4-6.4h-5.7z"/><path d="m869.1 896.2c0-10.1 7.8-17.4 17.6-17.4s17.6 7.3 17.6 17.4-7.8 17.4-17.6 17.4-17.6-7.4-17.6-17.4zm9.3 0c0 5.1 3.4 9 8.3 9 4.8 0 8.2-3.9 8.2-9 0-5.2-3.4-9-8.2-9-4.9 0-8.3 3.8-8.3 9z"/><path d="m908.2 896.2c0-10.1 7.8-17.4 17.6-17.4s17.6 7.3 17.6 17.4-7.8 17.4-17.6 17.4-17.6-7.4-17.6-17.4zm9.4 0c0 5.1 3.4 9 8.3 9 4.8 0 8.2-3.9 8.2-9 0-5.2-3.4-9-8.2-9-4.9 0-8.3 3.8-8.3 9z"/><path d="m958.8 891.1h2.2l9.1-11.4h11.3l-12.7 15.1 13.1 17.9h-11.2l-9.6-13.7h-2.2v13.6h-9.3v-50.4h9.3z"/><path d="m297 1386.4h549.5v125.9h-549.5z" fill="#fd92f3" stroke="#000" stroke-miterlimit="10" stroke-width="8"/><path d="m510.1 1471.1h-17.3v-50.4h17.3c16.5 0 26.1 10.2 26.1 25.2s-9.6 25.2-26.1 25.2zm-.4-41.8h-6.9v33.3h6.9c9.2 0 16.3-5.4 16.3-16.7 0-11.2-7.1-16.6-16.3-16.6z"/><path d="m554 1471.1h-9.4v-25.1h-4.6v-7.9h14zm-5.1-50.4c3.4 0 6 2.7 6 6 0 3.4-2.7 6-6 6s-6-2.6-6-6c0-3.3 2.7-6 6-6z"/><path d="m580.4 1449.1c0-2.4-1.9-3.9-5.5-3.9-3.3 0-7.5 1.7-9.9 3.1l-3.7-7.1s6.1-4 14.1-4c7.5 0 14.3 3.5 14.3 12.2v21.7h-9.4v-3.1c-1.7 2.6-5.5 4-9.2 4-7 0-11.5-5-11.5-10.4 0-6.3 4.6-10.2 12-10.2h6.5c1.6 0 2.3-.7 2.3-1.9zm0 10.2v-2.4c-.6.6-1.6.7-2.9.7h-3.5c-3 0-4.7 1.3-4.7 3.6 0 2.2 1.8 3.9 4.7 3.9 3.3 0 6.4-1.7 6.4-5.8z"/><path d="m617.7 1447.3h-4c-4.8 0-6.9 2.2-6.9 8v15.8h-9.4v-33h9.1v5.3c1.3-3.5 4.5-5.7 8.6-5.7.9 0 1.7.1 2.6.3z"/><path d="m633.3 1471.1h-2.3l-11.3-33h10.4l7 23.5 7.1-23.5h10.2l-13.2 38.2c-1.7 4.8-4.2 7.4-10.3 7.4h-6.5v-7.8h4.6c1.9 0 3-.7 3.7-2.6z"/><path d="m963.8 1386.2h549.5v125.9h-549.5z" fill="#71efc3" stroke="#000" stroke-miterlimit="10" stroke-width="8"/><path d="m1070.1 1470.9h-17.3v-50.4h17.3c16.5 0 26.1 10.2 26.1 25.2s-9.6 25.2-26.1 25.2zm-.4-41.8h-6.9v33.3h6.9c9.2 0 16.3-5.4 16.3-16.7 0-11.2-7-16.6-16.3-16.6z"/><path d="m1114 1470.9h-9.4v-25.1h-4.6v-7.9h14zm-5.1-50.4c3.4 0 6 2.7 6 6 0 3.4-2.7 6-6 6s-6-2.6-6-6c0-3.3 2.7-6 6-6z"/><path d="m1141.5 1448c-2.7-2.6-6-3.4-8.1-3.4-2.4 0-3.3 1.2-3.3 2.2 0 1.2.7 1.9 2.4 2.5l5.5 1.7c6.8 2.2 9.1 5.9 9.1 10.2 0 4.8-4.1 10.4-13.1 10.4-7.3 0-11.8-2.8-14.5-5.2l5-6.5c2.4 2.2 6.6 4.1 9.7 4.1 2.2 0 3.6-1.2 3.6-2.4 0-1.7-1.1-2.4-3.7-3.2l-5.6-1.7c-5.3-1.7-7.6-5.3-7.6-9.6 0-5.4 4.9-10.2 12.8-10.2 4.3 0 9.4 1.3 13.3 4.9z"/><path d="m1172.5 1448c-2.7-2.6-6-3.4-8.1-3.4-2.4 0-3.3 1.2-3.3 2.2 0 1.2.7 1.9 2.4 2.5l5.5 1.7c6.8 2.2 9.1 5.9 9.1 10.2 0 4.8-4.1 10.4-13.1 10.4-7.3 0-11.8-2.8-14.5-5.2l5-6.5c2.4 2.2 6.6 4.1 9.7 4.1 2.2 0 3.6-1.2 3.6-2.4 0-1.7-1.1-2.4-3.7-3.2l-5.6-1.7c-5.3-1.7-7.6-5.3-7.6-9.6 0-5.4 4.9-10.2 12.8-10.2 4.3 0 9.4 1.3 13.3 4.9z"/><path d="m1216.3 1457.2h-24.6c.5 3.7 3.4 6.6 7.6 6.6 2.7 0 5.3-1.2 6.6-3.4l9.7 1c-3 7.1-9.1 10.4-16.5 10.4-9.9 0-17.3-7.3-17.3-17.4s7.3-17.4 17.1-17.4c9.1 0 17.3 5.9 17.3 19.7v.5zm-24.7-6.3h14.8c-.5-3.3-3.3-6-7.3-6s-6.8 2.5-7.5 6z"/><path d="m1242.1 1447.2h-4c-4.8 0-6.9 2.2-6.9 8v15.8h-9.4v-33h9.1v5.3c1.3-3.5 4.5-5.7 8.6-5.7.9 0 1.7.1 2.6.3z"/><path d="m1259.2 1425.4v12.5h7.1v7.9h-7.1v14.9c0 2.1 1.7 2.4 3.1 2.4 2.4 0 4.3-.2 4.3-.2v8s-4.5.4-7.3.4c-4.7 0-9.5-.8-9.5-7.4v-18.1h-5.2v-7.9h5.2v-12.5z"/><path d="m1291.1 1448.9c0-2.4-1.9-3.9-5.5-3.9-3.3 0-7.5 1.7-9.9 3.1l-3.7-7.1s6.1-4 14.1-4c7.5 0 14.3 3.5 14.3 12.2v21.7h-9.4v-3.1c-1.7 2.6-5.5 4-9.2 4-7 0-11.5-5-11.5-10.4 0-6.3 4.6-10.2 12-10.2h6.5c1.6 0 2.3-.7 2.3-1.9zm0 10.2v-2.4c-.6.6-1.6.7-2.9.7h-3.5c-3 0-4.7 1.3-4.7 3.6 0 2.2 1.8 3.9 4.7 3.9 3.3 0 6.4-1.7 6.4-5.8z"/><path d="m1319.9 1425.4v12.5h7.1v7.9h-7.1v14.9c0 2.1 1.7 2.4 3.1 2.4 2.4 0 4.3-.2 4.3-.2v8s-4.5.4-7.3.4c-4.7 0-9.5-.8-9.5-7.4v-18.1h-5.2v-7.9h5.2v-12.5z"/><path d="m1344.8 1470.9h-9.4v-25.1h-4.6v-7.9h14zm-5.1-50.4c3.4 0 6 2.7 6 6 0 3.4-2.7 6-6 6s-6-2.6-6-6c.1-3.3 2.7-6 6-6z"/><path d="m1350.8 1454.4c0-10.1 7.8-17.4 17.6-17.4s17.6 7.3 17.6 17.4-7.8 17.4-17.6 17.4-17.6-7.3-17.6-17.4zm9.4 0c0 5.1 3.4 9 8.3 9 4.8 0 8.2-3.9 8.2-9 0-5.2-3.4-9-8.2-9-4.9 0-8.3 3.8-8.3 9z"/><path d="m1411.2 1437.1c7.1 0 12.2 4.5 12.2 12.2v21.6h-9.4v-19.2c0-4.2-2.7-5.9-5.6-5.9-2.7 0-5.2 1.5-7 3.7v21.4h-9.4v-33h9.1v1.3c0 1.2-.1 2.6-.1 2.6 2.6-3.1 6.3-4.7 10.2-4.7z"/><path d="m1634.5 1386.5h549.5v125.9h-549.5z" fill="#af3cc4" stroke="#000" stroke-miterlimit="10" stroke-width="8"/><path d="m1800.1 1452.9h-7.1v19.4h-10v-50.4h18.9c11 0 17.5 6.6 17.5 15.3 0 4.8-1.9 10.8-9.6 13.8l12.9 21.2h-11.5zm.6-22.4h-7.6v13.7h7.6c5.5 0 8.8-2.6 8.8-6.9 0-4.5-3.3-6.8-8.8-6.8z"/><path d="m1845 1450.3c0-2.4-1.9-3.9-5.5-3.9-3.3 0-7.5 1.7-9.9 3.1l-3.7-7.1s6.1-4 14.1-4c7.5 0 14.3 3.5 14.3 12.2v21.7h-9.4v-3.1c-1.7 2.6-5.5 4-9.2 4-7 0-11.5-5-11.5-10.4 0-6.3 4.6-10.2 12-10.2h6.5c1.6 0 2.3-.7 2.3-1.9zm0 10.1v-2.4c-.6.6-1.6.7-2.9.7h-3.5c-3 0-4.7 1.3-4.7 3.6 0 2.2 1.8 3.9 4.7 3.9 3.3.1 6.4-1.7 6.4-5.8z"/><path d="m1881.1 1438.4c7.1 0 12.2 4.5 12.2 12.2v21.6h-9.4v-19.2c0-4.2-2.7-5.9-5.6-5.9-2.7 0-5.2 1.5-7 3.7v21.4h-9.4v-33h9.1v1.3c0 1.2-.1 2.6-.1 2.6 2.6-3 6.4-4.7 10.2-4.7z"/><path d="m1925.3 1468.1c-1.7 2.7-5.5 5-10.3 5-9.1 0-16-7.3-16-17.4s6.8-17.4 15.9-17.4c5 0 8.9 2.3 10.5 5.1 0-1.1-.1-3.8-.1-6.3v-15.4h9.4v50.4h-9.4zm-16.6-12.4c0 5 3.5 9.1 8.4 9.1s8.4-4 8.4-9.1-3.5-9-8.4-9-8.4 3.9-8.4 9z"/><path d="m1940.6 1455.7c0-10.1 7.8-17.4 17.6-17.4s17.6 7.3 17.6 17.4-7.8 17.4-17.6 17.4-17.6-7.3-17.6-17.4zm9.4 0c0 5.1 3.4 9 8.3 9 4.8 0 8.2-3.9 8.2-9 0-5.2-3.4-9-8.2-9-4.9 0-8.3 3.9-8.3 9z"/><path d="m2025.2 1452.9c0-4-2.6-5.8-5.5-5.8-2.7 0-5 1.5-6.8 3.7v21.4h-9.4v-19.4c0-4-2.5-5.8-5.5-5.8-2.7 0-5 1.5-6.8 3.7v21.4h-9.4v-33h9.1v1.3c0 1.2-.1 2.6-.1 2.6 2.4-3 6.1-4.8 9.9-4.8 4.9 0 8.7 2.1 10.6 6 2.7-3.8 6.5-6 11.1-6 7.1 0 12.2 4.5 12.2 12.2v21.6h-9.4z"/><path d="m2312.9 1386.5h549.5v125.9h-549.5z" fill="#1caefc" stroke="#000" stroke-miterlimit="10" stroke-width="8"/><path d="m2503.1 1451.2v20h-10v-50.4h36.5v8.6h-26.5v13.1h19.4v8.6h-19.4z"/><path d="m2528.4 1454.7c0-10.1 7.8-17.4 17.6-17.4s17.6 7.3 17.6 17.4-7.8 17.4-17.6 17.4-17.6-7.3-17.6-17.4zm9.4 0c0 5.1 3.4 9 8.3 9 4.8 0 8.2-3.9 8.2-9 0-5.2-3.4-9-8.2-9-4.9 0-8.3 3.8-8.3 9z"/><path d="m2589.9 1447.4h-4c-4.8 0-6.9 2.2-6.9 8v15.8h-9.4v-33h9.1v5.3c1.3-3.5 4.5-5.7 8.6-5.7.9 0 1.7.1 2.6.3z"/><path d="m2627.1 1457.5h-24.6c.5 3.7 3.4 6.6 7.6 6.6 2.7 0 5.3-1.2 6.6-3.4l9.7 1c-3 7.1-9.1 10.4-16.5 10.4-9.9 0-17.3-7.3-17.3-17.4s7.3-17.4 17.1-17.4c9.1 0 17.3 5.9 17.3 19.7v.5zm-24.7-6.3h14.8c-.5-3.3-3.3-6-7.3-6s-6.8 2.5-7.5 6z"/><path d="m2652.1 1448.3c-2.7-2.6-6-3.4-8.1-3.4-2.4 0-3.3 1.2-3.3 2.2 0 1.2.7 1.9 2.4 2.5l5.5 1.7c6.8 2.2 9.1 5.9 9.1 10.2 0 4.8-4.1 10.4-13.1 10.4-7.3 0-11.8-2.8-14.5-5.2l5-6.5c2.4 2.2 6.6 4.1 9.7 4.1 2.2 0 3.6-1.2 3.6-2.4 0-1.7-1.1-2.4-3.7-3.2l-5.6-1.7c-5.3-1.7-7.6-5.3-7.6-9.6 0-5.4 4.9-10.2 12.8-10.2 4.3 0 9.4 1.3 13.3 4.9z"/><path d="m2675.4 1425.7v12.5h7.1v7.9h-7.1v14.9c0 2.1 1.7 2.4 3.1 2.4 2.4 0 4.3-.2 4.3-.2v8s-4.5.4-7.3.4c-4.7 0-9.5-.8-9.5-7.4v-18.1h-5.2v-7.9h5.2v-12.5z"/><g fill="none" stroke="#fff" stroke-miterlimit="10" stroke-width="8"><path d="m1830.3 1295.9 38 12.4 12.3-38"/><path d="m1867.3 1306.8-421-822.3"/><path d="m1166.8 1310.8 39.9.3.3-39.9"/><path d="m639.9 1310.8-39.9.3-.3-39.9"/><path d="m601.4 1310 302.5-294.3 301.4 294.3"/><path d="m2481.6 1310.5 42.2-4.7-4.6-42.1"/><path d="m989.2 718.2-10.4 38.5 38.5 10.4"/><path d="m976.8 757.5 470.1-273.7 1075.6 821.1"/></g></svg>